<?xml version="1.0" encoding="UTF-8"?>
<svg width="442px" height="409px" viewBox="0 0 442 409" version="1.1" xmlns="http://www.w3.org/2000/svg" xmlns:xlink="http://www.w3.org/1999/xlink">
    <!-- Generator: Sketch 47.1 (45422) - http://www.bohemiancoding.com/sketch -->
    <title>wttj-square</title>
    <desc>Created with Sketch.</desc>
    <defs></defs>
    <g id="Page-1" stroke="none" stroke-width="1" fill="none" fill-rule="evenodd">
        <g id="wttj-square" fill-rule="nonzero">
            <path d="M431.1,58.73 C433.31,85.36 427.86,98.49 422.58,104.84 C418.686131,109.612366 412.916254,112.46448 406.76,112.66 C402.23,112.93 398.42,111.19 395.12,107.36 C391.03,102.62 388.12,94.94 386.67,85.95 C395.6,84.06 413.79,76.95 418.08,49.84 C420.86,32.29 413.95,24.59 406.56,23.25 C393.56,20.85 381.38,35.7 378.21,51.05 C376.207876,60.5612773 375.581488,70.3107129 376.35,80 C375.97,91.88 373.28,105.06 367.18,106 C366.354296,106.195946 365.485815,105.954282 364.88,105.36 C360.49,101.43 359.17,86.18 359.63,76.61 L359.63,54.91 C359.63,34.91 354.06,24.6 343.06,24.32 L342.72,24.32 C332.31,24.81 325.23,34.24 321.65,52.32 C320.725558,51.0215308 319.64024,49.8454895 318.42,48.82 C314.813229,45.8405574 310.061505,44.6333625 305.47,45.53 C302.374111,46.0528829 299.495292,47.4593025 297.18,49.58 L297.18,40.58 L287.72,42.28 C287.72,61.1 287.17,76.04 277.54,86.14 L277.2,86.48 C273.57,69.09 264.75,57.39 253.87,57.39 C252.581472,57.4066831 251.30064,57.5915801 250.06,57.94 L250.06,57.94 C248.759894,58.4027292 247.512842,59.0027889 246.34,59.73 L246.34,59.73 L246.29,59.73 C237.93,64.43 231.61,76.49 229.53,92.59 L229.53,92.59 C229.53,92.7 229.53,92.81 229.53,92.92 C229.047037,96.7611526 228.803233,100.628605 228.8,104.5 C228.8,105.26 228.8,105.98 228.86,106.72 C226.01,134.05 214.86,137.35 209.68,137.35 L209.68,137.35 C203.68,137.35 199.09,133.67 195.78,126.09 C193.57,121 192.09,114.41 191.38,106.73 C191.24,102.36 191.02,99.12 190.91,97.73 C190.91,97.08 190.91,96.45 190.91,95.8 C190.91,80.8 194.55,68.05 200.42,62.43 C201.929608,60.7854913 204.057673,59.8465321 206.29,59.84 C208.365814,59.8734744 210.30118,60.8950208 211.5,62.59 C215.44,67.75 216.25,79.44 213.57,91.83 L223.51,90.18 C225.44,78.61 225.14,64.86 219.01,56.85 C216.105406,52.9333808 211.573328,50.5550524 206.7,50.39 C201.889049,50.2735739 197.245856,52.16055 193.88,55.6 C186.1,63.05 181.45,78.08 181.45,95.8 C181.45,99.13 181.59,102.97 181.94,107.01 C182.35,121.86 181.38,145.08 174.28,153.34 C173.244632,154.755029 171.647131,155.652256 169.9,155.8 C168.263126,155.966281 166.643657,155.351105 165.53,154.14 C159.58,148.25 158.36,129.48 158.99,119.03 L158.99,73.17 C158.99,71.89 158.99,20.44 158.99,13.44 L149.54,15.13 L149.54,71.86 L149.54,71.86 L149.54,73.26 C149.01,147.18 133.93,160.05 124.98,161.14 C121.85,161.51 118.98,160.29 116.33,157.37 C113.04,153.8 110.55,148.37 108.98,141.89 C120.56,137.69 136.86,126.68 139.3,105.65 C141.9,83.31 130.47,79.7 126.91,79.12 C116.81,77.48 103.41,87.71 99.41,107.05 C94.84,129.12 98.94,152.44 109.41,163.77 C113.58,168.31 118.56,170.66 123.9,170.66 C124.655586,170.66288 125.410546,170.616113 126.16,170.52 C137.31,169.17 145.56,160.08 151.02,143.04 C152.34,149.97 154.71,156.74 158.91,160.9 C161.686828,163.741655 165.496902,165.336402 169.47,165.32 C169.84,165.32 170.21,165.32 170.59,165.32 C174.859389,164.999524 178.805393,162.925157 181.49,159.59 C186.19,154.12 188.77,145.03 190.14,135.46 C196.08,144.71 203.86,146.87 209.75,146.87 L209.75,146.87 C220.12,146.87 228.02,140.73 232.99,129.36 C237.32,140.58 244.79,147.41 253.99,147.41 C268.78,147.41 279.11,129.79 279.11,104.56 C279.11,102.28 279.01,100.07 278.86,97.89 C280.84981,96.2761111 282.733702,94.5358486 284.5,92.68 C285.702085,91.4205966 286.821107,90.0844512 287.85,88.68 L287.85,139.59 L297.3,137.79 L297.3,76.33 C297.96,66.76 300.56,55.99 307.18,54.86 C309.051234,54.4194263 311.020772,54.8821937 312.5,56.11 C317.57,60.4 319,73 319.08,77 L319.08,125 L328.53,123.31 L328.53,82.42 C328.440578,73.8598574 329.062719,65.3070895 330.39,56.85 C331.81,48.47 335.32,34.4 342.95,33.85 C347.65,34.13 350.14,41.43 350.14,54.98 L350.14,76.3 C349.91,81.16 349.34,104.2 358.54,112.43 C360.717464,114.44098 363.57601,115.552239 366.54,115.54 C367.246642,115.537283 367.952038,115.48045 368.65,115.37 C375.13,114.37 379.2,109.37 381.74,103.12 C383.283634,106.891966 385.394672,110.405866 388,113.54 C392.87,119.19 399.05,122.14 406,122.14 C406.46,122.14 406.92,122.14 407.38,122.14 C416.15707,121.792712 424.366954,117.709604 429.94,110.92 C439.18,99.81 442.72,81.71 440.54,57.1 L431.1,58.73 Z M108.59,109 C111.32,95.78 119.41,88.44 124.59,88.44 C124.851179,88.4393071 125.112,88.4593703 125.37,88.5 C129.18,89.11 130.94,95.43 129.88,104.6 C127.88,121.51 115.05,129.23 107.37,132.36 C106.624814,124.555726 107.035913,116.684192 108.59,109 L108.59,109 Z M250.32,68 C251.360305,67.2582986 252.593526,66.8344877 253.87,66.78 C259.92,66.78 266.55,77.57 268.77,93.31 C263.77,96.31 259.07,97.07 254.77,95.63 C248.77,93.63 245.03,87.63 244.48,82.74 C243.55,74.41 247.45,70.07 250.32,68 Z M253.87,137.87 C246.53,137.87 238.75,126.87 238.26,106.53 C238.64,102.69 238.856667,98.6066667 238.91,94.28 C241.912706,99.067348 246.444213,102.700306 251.77,104.59 C255.54,105.86 261.77,106.77 269.52,103.47 C269.52,103.81 269.52,104.14 269.52,104.47 C269.54,126.21 261.47,137.91 253.87,137.91 L253.87,137.87 Z M385.69,71.47 L385.59,71.47 C385.603752,65.2662816 386.233508,59.0792598 387.47,53 C390.17,39.91 398.65,32.51 403.95,32.51 C404.255068,32.5104766 404.559528,32.5372423 404.86,32.59 C408.63,33.27 410.15,39.48 408.74,48.4 C405.46,69.13 392.65,74.94 385.85,76.57 C385.83,74.05 385.74,72.23 385.69,71.47 Z" id="Shape" fill="#FFFFFF"></path>
            <path d="M45.55,64.08 L28,195.69 C23.81,138.5 14.52,82 9.3,53 L0,54.68 C6.73,92 20.28,175.57 20.77,246.49 L31.06,244.64 L50.4,99.3 L69.34,225.39 L80.43,223.39 C81.33,195.46 86,115.83 110.14,0 L100.14,1.8 C83.37,83.2 76.14,146.61 73.14,186.54 L54.51,62.54 L45.55,64.08 Z" id="Shape" fill="#FFFFFF"></path>
            <path d="M406.33,202.74 C408.54,229.37 403.08,242.5 397.81,248.85 C393.917561,253.618728 388.152396,256.470314 382,256.67 C377.46,256.94 373.65,255.19 370.36,251.37 C366.27,246.63 363.36,238.94 361.91,229.96 C370.83,228.07 389.03,220.96 393.32,193.85 C396.09,176.3 389.19,168.6 381.8,167.26 C368.75,164.87 356.62,179.71 353.44,195.05 C351.239051,205.486953 350.71247,216.207593 351.88,226.81 C352.44,242.12 351.73,268.41 344.11,277.23 C343.121446,278.594935 341.588924,279.463365 339.91,279.61 C338.362599,279.753782 336.836316,279.169877 335.78,278.03 C329.63,271.95 328.36,251.92 329,240.72 L329,139.05 L319.54,140.81 L319.54,240.32 C319.32,244.32 318.09,273.83 329.12,284.75 C331.842929,287.526882 335.570867,289.088001 339.46,289.08 L340.55,289.08 C344.749653,288.755802 348.628869,286.711253 351.27,283.43 C356.77,277.05 359.42,265.58 360.62,254.06 C361.391604,255.289969 362.250476,256.462981 363.19,257.57 C368.06,263.22 374.24,266.18 381.14,266.18 C381.6,266.18 382.06,266.18 382.52,266.18 C391.294151,265.82132 399.499632,261.740403 405.08,254.96 C414.31,243.84 417.85,225.74 415.68,201.13 L406.33,202.74 Z M360.92,219.15 L360.92,219.15 C360.641426,211.708201 361.245639,204.259605 362.72,196.96 C365.43,183.87 373.91,176.47 379.21,176.47 C379.515254,176.465936 379.820137,176.492739 380.12,176.55 C383.89,177.23 385.41,183.44 384,192.36 C380.71,213.14 367.84,218.93 361,220.54 C361,219.94 360.94,219.47 360.92,219.15 L360.92,219.15 Z" id="Shape" fill="#00C29A"></path>
            <path d="M114.21,192.88 L114.21,341.64 C114.21,373.98 95.64,399.32 71.93,399.32 C43.1,399.32 27.54,371.77 27.54,345.86 C27.54,324.59 33.6,308.3 44.59,299.99 C52.01,294.39 59.23,292.39 66.73,293.91 C75.48,295.68 82.94,302 88.16,307.77 L95.31,301.56 C89.09,294.66 79.92,286.95 68.64,284.65 C58.49,282.59 48.47,285.21 38.89,292.45 C25.47,302.59 18.09,321.56 18.09,345.86 C18.09,381.73 41.23,408.78 71.93,408.78 C100.93,408.78 123.66,379.29 123.66,341.64 L123.66,191.18 L114.21,192.88 Z" id="Shape" fill="#00C29A"></path>
            <path d="M308.54,307.42 L308.54,184.12 L299.09,185.87 L299.09,203 C294.83,196.74 289.4,193.06 283.32,193.06 C269.42,193.06 258.87,212.19 258.26,237.9 L258.26,237.9 L258.26,238.32 C258.26,238.95 258.26,239.57 258.26,240.21 C258.258456,243.552076 258.45547,246.891292 258.85,250.21 C259.58,263.95 260.25,287.21 251.58,289.03 C249.58,289.44 248.66,288.94 248.07,288.46 C243.46,284.69 243.46,269.6 243.46,263.15 C243.46,261.35 243.59,258.89 243.75,256.04 C244.48,242.83 245.48,224.75 237.11,217.44 C234.94,215.54 231.11,213.52 225.34,214.63 C220.36,215.59 216.206667,218.683333 212.88,223.91 L212.88,213.41 L203.43,215.17 L203.43,251.68 C202.6,303.43 194.43,310.56 190.74,311.09 C189.482839,311.330891 188.189025,310.920932 187.3,310 C182.62,305.69 180.62,292.52 180.13,280.29 C180.2,276.6 180.22,272.88 180.22,269.16 L180.22,238.67 L170.77,240.42 L170.77,265.66 C170.67,267.35 170.41,272.99 170.66,280.05 C169.66,329 161.45,333.05 158.84,333.05 C156.863018,333.09898 154.960814,332.293641 153.62,330.84 C148.4,325.52 147.52,312.59 147.62,307.95 L147.62,233.82 L138.17,235.58 L138.17,307.82 C138.17,309.89 137.95,328.3 146.86,337.42 C149.989819,340.692316 154.332036,342.526903 158.86,342.49 C169.66,342.49 175.11,330.31 177.79,313.1 C178.64483,314.535144 179.691109,315.847197 180.9,317 C183.868835,319.802194 187.965779,321.075569 192,320.45 C196.76,319.77 200.47,316.68 203.35,311.8 L203.35,326.65 L212.8,324.7 L212.8,268.13 C213.2,251.58 216.7,225.94 227.05,223.94 C229.24,223.51 230.21,224.06 230.81,224.59 C235.71,228.86 234.75,246.22 234.23,255.59 C234.06,258.59 233.92,261.16 233.92,263.22 C233.92,275.82 234.55,289.77 242.02,295.86 C245.2129,298.428678 249.424463,299.353889 253.4,298.36 C262.95,296.36 266.74,286.76 268.05,275.29 C272.17,280.29 277.36,283.2 283.29,283.2 C289.48,283.2 294.86,280.08 299.06,274.65 L299.06,306.71 L299.06,306.71 L299.06,323 L299.06,323 C299.188586,331.565172 298.724143,340.128972 297.67,348.63 C295.44,364.14 290.2,373.99 281.67,378.76 C275.41898,382.03478 268.139908,382.75193 261.37,380.76 C255.302136,379.161707 250.126954,375.20019 247,369.76 C243.22,362.92 242.59,356.51 245.07,350.16 C249.6,338.54 263.71,329.8 275.45,325.37 C281.45,323.49 287.69,321.763333 294.17,320.19 L294.17,310.48 C287.55,312.026667 281.173333,313.733333 275.04,315.6 L275.04,315.5 C274.16,315.79 273.26,316.11 272.36,316.45 C245.847881,324.643963 220.655453,336.617103 197.56,352 C162.06,375.83 145.24,399 144.56,400 L152.24,405.5 C152.67,404.91 180.91,366.44 240.59,338.81 C238.813315,341.253362 237.351789,343.910987 236.24,346.72 C232.73,355.72 233.56,365 238.7,374.32 C243.04259,381.955113 250.264468,387.530907 258.75,389.8 C262.140583,390.776433 265.651619,391.271277 269.18,391.27 C275.136405,391.313468 281.006372,389.844255 286.24,387 C297.56,380.7 304.37,368.58 307.03,349.95 C308.42,340.26 308.54,330.49 308.54,320.51 L308.54,317 C326.678579,313.527101 345.076283,311.58029 363.54,311.18 L363.32,301.73 C344.936355,302.145042 326.616498,304.047926 308.54,307.42 Z M283.32,273.7 C276.92,273.7 270.2,265.33 268.24,249.7 C268.18,248.65 268.13,247.62 268.07,246.63 C267.88,243.29 267.72,240.41 267.71,238.27 C268.19,217.7 276.16,202.54 283.32,202.54 C290.72,202.54 299,218.67 299,240.24 C299,262 290.92,273.7 283.32,273.7 Z" id="Shape" fill="#00C29A"></path>
            <polygon id="Shape" fill="#FFFFFF" points="148.78 185.91 148.78 213 143.1 213.77 143.1 186.61 139.1 187.11 139.1 181.72 152.77 180 152.77 185.37"></polygon>
            <polygon id="Shape" fill="#FFFFFF" points="210.16 164.77 210.16 191.19 204.49 191.93 204.49 165.44 200.49 165.92 200.49 160.65 214.16 159.05 214.16 164.29"></polygon>
            <polygon id="Shape" fill="#FFFFFF" points="236.62 203.61 236.62 190.44 231.69 191.09 231.69 204.28 226.02 205.05 226.02 173.57 231.69 172.87 231.69 185.87 236.62 185.24 236.62 172.24 242.29 171.54 242.29 202.82"></polygon>
            <polygon id="Shape" fill="#FFFFFF" points="257.74 186.68 257.74 155.58 270.2 154.11 270.2 159.24 263.41 160.06 263.41 167.77 269.41 167.03 269.41 172.16 263.41 172.91 263.41 180.8 270.34 179.91 270.34 185"></polygon>
            <path d="M168.56,222.07 C163.4,222.79 159.91,218.16 159.91,207.5 L159.91,205.84 C159.91,195.19 163.4,189.62 168.56,188.97 C173.72,188.32 177.21,192.97 177.21,203.54 L177.21,205.19 C177.21,215.78 173.72,221.35 168.56,222.07 Z M171.44,204.31 C171.44,196.04 170.28,193.89 168.56,194.12 C166.84,194.35 165.68,196.79 165.68,205.07 L165.68,206.73 C165.68,215.02 166.84,217.16 168.56,216.92 C170.28,216.68 171.44,214.23 171.44,205.92 L171.44,204.31 Z" id="Shape" fill="#FFFFFF"></path>
        </g>
    </g>
</svg>